<svg xmlns="http://www.w3.org/2000/svg" xmlns:xlink="http://www.w3.org/1999/xlink" width="267.465" height="120.929" viewBox="0 0 200.599 90.697"><path stroke-width=".399" stroke-miterlimit="10" fill="none" stroke="#000" d="M1.975 59.522h53.63"/><path d="m58.1 59.522-3.57-1.346 1.174 1.346-1.174 1.346z"/><path stroke-width=".399" stroke-miterlimit="10" fill="none" stroke="#000" d="m58.1 59.522-3.57-1.346 1.174 1.346-1.174 1.346zM16.148 73.695v-53.63"/><path d="m16.148 17.57-1.346 3.57 1.346-1.174 1.346 1.174z"/><path stroke-width=".399" stroke-miterlimit="10" fill="none" stroke="#000" d="m16.148 17.57-1.346 3.57 1.346-1.174 1.346 1.174z"/><path stroke-width=".797" stroke-miterlimit="10" fill="none" stroke="#000" d="M16.148 59.522h24.236"/><path d="m43.36 59.522-4.154-1.57 1.378 1.57-1.378 1.57z"/><path stroke-width=".797" stroke-miterlimit="10" fill="none" stroke="#000" d="m43.36 59.522-4.154-1.57 1.378 1.57-1.378 1.57z"/><symbol id="a"><path d="M.141.242a.45.45 0 0 1 .153.023c.07.03.075.089.075.103 0 .044-.038.085-.107.085A.272.272 0 0 1 0 .181C0 .079.059 0 .157 0 .3 0 .384.106.384.118c0 .006-.006.013-.012.013C.367.131.365.129.359.121.28.022.171.022.159.022.081.022.072.106.072.138c0 .012.001.043.016.104h.053M.094.264c.039.152.142.167.168.167.047 0 .074-.029.074-.063C.336.264.176.264.135.264H.094z"/></symbol><use xlink:href="#a" transform="matrix(9.9626 0 0 -9.9626 40.398 67.64)"/><symbol id="b"><path d="M.226.636c0 .027-.002.028-.03.028C.132.601.041.6 0 .6V.564c.024 0 .09 0 .145.028v-.51c0-.033 0-.046-.1-.046H.007V0l.178.004L.364 0v.036H.326c-.1 0-.1.013-.1.046v.554z"/></symbol><use xlink:href="#b" transform="matrix(6.9738 0 0 -6.9738 45.34 69.024)"/><path stroke-width=".797" stroke-miterlimit="10" fill="none" stroke="#000" d="M16.148 59.522V35.286"/><path d="m16.148 32.31-1.57 4.154 1.57-1.378 1.57 1.378z"/><path stroke-width=".797" stroke-miterlimit="10" fill="none" stroke="#000" d="m16.148 32.31-1.57 4.154 1.57-1.378 1.57 1.378z"/><use xlink:href="#a" transform="matrix(9.9626 0 0 -9.9626 3.78 32.683)"/><symbol id="c"><path d="M.442.182H.408C.405.16.395.101.382.091.374.085.297.085.283.085H.099a3.5 3.5 0 0 0 .2.168c.074.059.143.121.143.216C.442.59.336.664.208.664.084.664 0 .577 0 .485 0 .434.043.429.053.429c.024 0 .053.017.053.053C.106.5.099.535.047.535a.157.157 0 0 0 .146.093c.1 0 .152-.078.152-.159C.345.382.283.313.251.277L.01.039C0 .03 0 .028 0 0h.412l.03.182z"/></symbol><use xlink:href="#c" transform="matrix(6.9738 0 0 -6.9738 8.398 34.067)"/><path d="M16.148 59.522h28.347V31.175H16.148" fill="red" fill-opacity=".2"/><path stroke-width=".399" stroke-miterlimit="10" fill="none" stroke="#000" d="M87.015 59.522h110.323"/><path d="m199.835 59.522-3.571-1.346 1.174 1.346-1.174 1.346z"/><path stroke-width=".399" stroke-miterlimit="10" fill="none" stroke="#000" d="m199.835 59.522-3.571-1.346 1.174 1.346-1.174 1.346zM101.188 87.869V5.892"/><path d="m101.188 3.396-1.345 3.571 1.345-1.174 1.346 1.174z"/><path stroke-width=".399" stroke-miterlimit="10" fill="none" stroke="#000" d="m101.188 3.396-1.345 3.571 1.345-1.174 1.346 1.174z"/><path stroke-width=".797" stroke-miterlimit="10" fill="none" stroke="#000" d="m101.188 59.522 52.706 13.177"/><path d="m156.781 73.42-3.649-2.53.956 1.857-1.717 1.19z"/><path stroke-width=".7969920300000001" stroke-miterlimit="10" fill="none" stroke="#000" d="m156.781 73.42-3.649-2.53.956 1.857-1.717 1.19z"/><symbol id="d"><path d="M.12.048C.116.035.115.033.115.028.115.006.134 0 .144 0c.005 0 .027.003.037.026.003.008.008.041.035.183C.225.208.232.207.249.207c.166 0 .32.157.32.315C.569.6.53.66.455.66.31.66.25.466.19.271.082.291.026.347.026.419c0 .028.023.138.083.207.008.009.008.011.008.013 0 .004-.002.01-.012.01C.077.649 0 .504 0 .408 0 .314.066.241.173.216L.12.048m.138.217L.24.266C.228.266.227.267.227.27l.02.108c.031.128.109.224.198.224C.514.602.541.548.541.5.541.387.412.265.258.265z"/></symbol><use xlink:href="#d" transform="matrix(9.9626 0 0 -9.9626 146.691 87.058)"/><symbol id="e"><path d="M.232.01c0 .003 0 .005-.017.022C.09.158.058.347.058.5c0 .174.038.348.161.473.013.012.013.014.013.017 0 .007-.004.01-.01.01-.01 0-.1-.068-.159-.195A.727.727 0 0 1 0 .5C0 .422.011.301.066.188A.432.432 0 0 1 .222 0c.006 0 .01.003.01.01z"/></symbol><use xlink:href="#e" transform="matrix(9.9626 0 0 -9.9626 153.696 87.377)"/><use xlink:href="#a" transform="matrix(9.9626 0 0 -9.9626 157.043 84.996)"/><use xlink:href="#b" transform="matrix(6.9738 0 0 -6.9738 161.983 86.38)"/><symbol id="f"><path d="M.232.5a.729.729 0 0 1-.066.312A.432.432 0 0 1 .01 1C.004 1 0 .996 0 .99 0 .987 0 .985.019.967.117.868.174.709.174.5.174.329.137.153.013.027 0 .015 0 .013 0 .01 0 .004.004 0 .01 0c.01 0 .1.068.159.195C.22.305.232.416.232.5z"/></symbol><use xlink:href="#f" transform="matrix(9.9626 0 0 -9.9626 166.26 87.377)"/><path stroke-width=".797" stroke-miterlimit="10" fill="none" stroke="#000" d="m101.188 59.522 26.067-39.1"/><path d="m128.906 17.946-3.61 2.585 2.07-.275.543 2.017z"/><path stroke-width=".7969681200000001" stroke-miterlimit="10" fill="none" stroke="#000" d="m128.906 17.946-3.61 2.585 2.07-.275.543 2.017z"/><use xlink:href="#d" transform="matrix(9.9626 0 0 -9.9626 118.344 12.964)"/><use xlink:href="#e" transform="matrix(9.9626 0 0 -9.9626 125.35 13.283)"/><use xlink:href="#a" transform="matrix(9.9626 0 0 -9.9626 128.696 10.902)"/><use xlink:href="#c" transform="matrix(6.9738 0 0 -6.9738 133.316 12.287)"/><use xlink:href="#f" transform="matrix(9.9626 0 0 -9.9626 137.914 13.283)"/><path d="m101.188 59.522 56.694 14.173 28.347-42.52-56.694-14.173" fill="red" fill-opacity=".2"/><path stroke-width=".399" stroke-miterlimit="10" fill="none" stroke="#000" d="M61.503 45.349h19.613"/><path d="m83.613 45.349-3.572-1.346 1.175 1.346-1.175 1.345z"/><path stroke-width=".399" stroke-miterlimit="10" fill="none" stroke="#000" d="m83.613 45.349-3.572-1.346 1.175 1.346-1.175 1.345z"/><use xlink:href="#d" transform="matrix(9.9626 0 0 -9.9626 70.08 42.063)"/></svg>